# xmcd CD database file
#
# Track frame offsets:
#	150
#	16336
#	31726
#	47782
#	64322
#	82388
#	100365
#	116420
#	136632
#	150293
#	172758
#	192081
#	209255
#	226913
#	245218
#	260734
#	276849
#
# Disc length: 3919 seconds
#
# Revision: 0
# Processed by: cddbd v1.5.2PL0 Copyright (c) Steve Scherf et al.
# Submitted via: CDex 1.70beta2
#
DISCID=e50f4d11
DTITLE=Charlie Major, 1954- - More of the Best
DYEAR=2018
DGENRE=Country Can 2011-2020
TTITLE0=I'm somebody
TTITLE1=Nobody gets too much love
TTITLE2=I'm here
TTITLE3=Someday ... ride in a Cadillac
TTITLE4=I'm waiting on you
TTITLE5=It's lonely I can't stand
TTITLE6=You can trust in my love
TTITLE7=The last peaceful place in the world
TTITLE8=I'm alright
TTITLE9=Simple plan
TTITLE10=Already gone
TTITLE11=Still running
TTITLE12=My lover now
TTITLE13=Slipping away
TTITLE14=Shine
TTITLE15=All of your love
TTITLE16=It can't happen to me (remake)
EXTD=YEAR: 2018
EXTT0=
EXTT1=
EXTT2=
EXTT3=
EXTT4=
EXTT5=
EXTT6=
EXTT7=
EXTT8=
EXTT9=
EXTT10=
EXTT11=
EXTT12=
EXTT13=
EXTT14=
EXTT15=
EXTT16=
PLAYORDER=
